<svg preserveAspectRatio="xMidYMid meet" id="comp-k90febymsvgcontent" data-bbox="48.5 10.004 102.999 179.996" viewBox="48.5 10.004 102.999 179.996" height="200" width="200" xmlns="http://www.w3.org/2000/svg" data-type="color" role="img">
    <g>
        <path d="M149.69 134.654c-1.637 1.6-5.094 1.599-6.725-.001-2.448-2.397-7.253-2.393-9.695.001-1.637 1.6-5.094 1.599-6.725-.001-2.448-2.397-7.253-2.393-9.695.001-1.637 1.6-5.094 1.599-6.725-.001-1.437-1.408-3.683-1.964-5.79-1.718v2.099c1.554-.249 3.285.125 4.305 1.124 2.445 2.397 7.25 2.402 9.695.001 1.634-1.6 5.092-1.602 6.725-.001 1.223 1.2 3.036 1.799 4.849 1.799 1.81 0 3.624-.599 4.846-1.798 1.634-1.6 5.092-1.602 6.725-.001 2.445 2.403 7.25 2.397 9.695 0l-1.485-1.504zm-32.647 2.259c-.273-.131-.645-.01-.58-.378.035-.201.298-.415.51-.516.19-.091.605.335.518.534-.068.155-.293.242-.448.36z" fill="#1EBA9A" data-color="1"></path>
        <path d="M108.694 126.607c2.445 2.4 7.247 2.4 9.698 0 1.628-1.603 5.083-1.6 6.723 0 2.445 2.4 7.25 2.4 9.695 0 1.634-1.603 5.086-1.6 6.725 0 1.223 1.2 3.033 1.799 4.846 1.799 1.813 0 3.626-.599 4.849-1.798l-1.485-1.507c-1.634 1.603-5.092 1.602-6.725.001-2.445-2.4-7.25-2.399-9.695-.001-1.634 1.603-5.092 1.602-6.725.001-2.445-2.4-7.25-2.399-9.695-.001-1.634 1.603-5.092 1.602-6.725.001-1.448-1.422-3.722-1.979-5.845-1.717v2.106c1.566-.265 3.323.105 4.359 1.116z" fill="#1EBA9A" data-color="1"></path>
        <path d="M108.964 145.656c2.445 2.399 7.25 2.4 9.695.001 1.634-1.603 5.092-1.602 6.725-.001 1.223 1.2 3.036 1.801 4.849 1.801s3.624-.601 4.846-1.799c1.634-1.603 5.092-1.602 6.725-.001 2.445 2.4 7.25 2.4 9.695 0l-1.485-1.504c-1.634 1.603-5.086 1.6-6.725 0-2.445-2.4-7.25-2.4-9.695 0-1.634 1.603-5.086 1.6-6.725 0-2.445-2.4-7.25-2.4-9.695 0-1.639 1.602-5.097 1.597-6.725-.001-1.511-1.479-3.919-2.038-6.116-1.691v2.153c1.635-.365 3.538-.028 4.631 1.042z" fill="#1EBA9A" data-color="1"></path>
        <path d="M114.208 120.106c-2.611-4.012-6.506-6.875-9.491-10.143-2.634-2.884-4.561-6.083-4.271-10.666.285-4.507 4.22-7.956 4.22-12.747 0-8.111-6.595-12.407-15.543-13.623l.029 24.14c-.75-.174-1.504-.26-2.267-.284V72.46l7.209-6.311c4.949-4.206 7.514-10.018 7.696-15.91h.049V21.03c0-6.08-4.965-11.026-11.069-11.026-6.102 0-11.066 4.946-11.066 11.026v6.709h-4.281a1.884 1.884 0 0 0-3.607.759 1.884 1.884 0 0 0 3.607.759h4.281v5.624h-4.281a1.885 1.885 0 0 0-3.607.759 1.884 1.884 0 0 0 3.607.759h4.281v5.624h-4.281a1.885 1.885 0 0 0-3.607.759 1.884 1.884 0 0 0 3.607.759h4.281v18.033l-9.764 8.298c-5.119 4.35-8.18 10.301-7.631 16.361-.003.112-.033.207-.033.32 0 4.069 3.042 7.6 3.13 11.719.135 6.367-1.85 10.858-7.125 15.435-6.26 5.433-9.781 12.727-9.781 20.263 0 4.149 1.07 8.085 2.953 11.657.011-.008.018-.02.024-.018.035.011.063.042.115.08-.038.021-.058.03-.082.042 5.263 9.882 16.913 16.889 30.575 17.339v15.854c0 4.528-3.698 8.211-8.242 8.211-3.93 0-7.215-2.758-8.035-6.43-.116-1.644-.176-2.389.712-3.097.735-.586 2.367.213 3.386.418 3.205.643 6.243-1.246 6.909-4.361.679-3.177-1.582-6.436-4.938-6.738-1.507-.136-3.198.049-4.585.62-4.447 1.829-7.229 7.429-6.492 12.562.739 5.145 4.355 8.898 9.343 9.695 1.17.187 2.286.238 3.378.161.108.003.215-.015.324-.015 6.103 0 11.068-4.946 11.068-11.026v-15.857c18.613-.637 33.531-13.424 33.531-29.097-.002-4.827-1.477-9.624-4.236-13.864zm-13.479-39.363c.279-.005.56-.033.834.001.064.008.101.225.151.346-.139.049-.304.171-.413.133-.208-.073-.384-.236-.573-.362l.001-.118zM54.245 136.93l-.196-.063.106-.506c.228.287.241.442.09.569zm1.371-6.229l.036-.501.131-.073.312.522-.479.052zm4.59-15.366c-.434-.248-1.031-.165-1.365-.661.421-.605.966-.99 1.719-.926.293.025.593.167.851.321s.121.717-.225.927c-.223.135-.474.227-.718.323-.078.031-.197.053-.262.016zm1.026 33.741c-.069-.019-.081-.241-.12-.369.133-.03.287-.118.394-.079.209.076.392.223.641.374-.317.242-.628.155-.915.074zm3.933-36.283c-.341.128-.552.003-.851-.529.329 0 .602-.018.87.012.076.008.199.164.189.237-.015.103-.113.244-.208.28zm9.541 60.166l.746.319c-.057.136-.081.359-.181.402-.394.167-.667-.07-.941-.392l.376-.329zm-11.409.011c-.008-.103.079-.281.157-.304.093-.027.27.045.33.131.107.152.153.346.237.553-.338.117-.698-.065-.724-.38zm1.701 8.497c-.206.101-.293-.104-.346-.293-.034-.122-.118-.231-.256-.489.357 0 .632-.023.898.014.081.011.218.243.195.274-.14.185-.292.396-.491.494zm33.165-67.264c.17.176.354.277.372.402.039.269-.201.29-.4.288-.19-.001-.401-.054-.347-.292.029-.129.204-.225.375-.398zm-1.352 12.86c.409-.44.715-.387.974.161.042.088.118.161.2.271l-.669.296c-.107-.049-.237-.116-.372-.171-.312-.126-.359-.314-.133-.557zm-2.598-49.404c.033.247.1.486-.213.501-.096.005-.287-.182-.287-.281 0-.325.251-.242.5-.22zm-1.268 28.723c.92 2.035.991 4.354.301 6.441a8.98 8.98 0 0 1-1.248 2.444c-.633.874-3.568 3.504-5.112 3.466v-17.675c2.557.384 4.908 2.776 6.059 5.324zM92.471 135c-.79-.027-.853-.096-1.035-.713-.08-.271-.257-.513-.4-.789l-.529-.35.058-.115c.281-.078.55-.075.771.177.305.347.636.678.9 1.054.137.193.156.47.235.736zm-11.708 4.393v-18.071c.52.135 1.084.245 1.648.356v17.715h1.413v-18.02c.789.064 1.608.093 1.561 1.242-.037.924.012 1.842.087 2.756v14.022h1.413v-18.057c.443-.571 1.123-.93 1.965-1.278.033-.017.061-.045.095-.058.062-.023.116-.056.177-.079v20.569h-12.01v-20.46c.69.314 1.436.601 2.237.861v18.502h1.414zm0-20.386v-16.044a8.092 8.092 0 0 1 1.648-1.136v17.474a15.298 15.298 0 0 1-1.648-.294zm3.061-22.096V75.14l1.648-1.443v23.096c-.541.024-1.09.065-1.648.118zm1.649 5.062v2.057c.006-.592.022-1.186-.022-1.774-.009-.117.016-.187.022-.283zm-.236-.118c.065 1.624-.065 13.648-.065 16.099 0 .304-.115.562-.218.812-.174.386-.549.566-1.13.564v-18.013c.721-.118 1.391-.029 1.413.538zm14.197-81.661c.214-.059.922.149.993.303.043.093.049.279-.007.323a.441.441 0 0 1-.363.058c-.201-.069-.383-.196-.644-.338l.021-.346zm-13.846-6.719l.516-.025-.041.581-.52-.421.045-.135zM82.53 43.538h5.178a1.884 1.884 0 0 0 3.607-.759 1.884 1.884 0 0 0-3.607-.759H82.53v-5.624h5.178a1.884 1.884 0 0 0 3.607-.759 1.884 1.884 0 0 0-3.607-.759H82.53v-5.624h5.178a1.884 1.884 0 0 0 3.607-.759 1.884 1.884 0 0 0-3.607-.759H82.53V21.03c0-4.528 3.698-8.211 8.241-8.211 4.545 0 8.243 3.683 8.243 8.211v24.132L82.53 59.17V43.538zm-.891 15.206l.15-.006.023.422h-.173v-.416zm-.876 19.076l1.648-1.443v20.919c-.552.323-1.185.739-1.648 1.052V77.82zm-.061 23.87c.088.062.087.248.125.372-1.284.523-1.432.477-2.104-.627.708-.21 1.373-.175 1.979.255zm-4.335-28.853c.501-.009 1.007-.056 1.5.001.114.013.182.379.271.582-.251.083-.547.287-.742.223-.374-.122-.69-.397-1.03-.608l.001-.198zm-8.113 11.318c-.237-.117-.592-.179-.686-.361-.18-.349-.211-.766-.304-1.154l.141-.14c.363.345.756.666 1.066 1.051.073.09-.137.397-.217.604zm.52 62.02c.631-.342.96-.266 1.338.259l-.402.338-.936-.597zm1.963 4.948c-.399.197-.55-.116-.777-.35l.409-.376c.208.214.517.345.368.726zm6.405-53.638v-3.079l-.029-.008V81.015l2.237-1.958v20.45c-.064.063-.141.125-.202.189-.176.182-.335.37-.495.559-.1.118-.202.235-.294.353-.177.229-.341.464-.495.703-.051.08-.103.159-.151.239a9.446 9.446 0 0 0-.407.753c-.048.102-.096.203-.139.304-.088.2-.166.404-.24.611-.086.254-.173.508-.237.774-.561 2.37.019 4.516.519 5.768.175.462.194.528.434.796.141.157.394.289.541.27-.127-1.14-.104-2.026.008-3.204.104-.53.067-1.062.439-1.797.184-.496.422-.965.719-1.401v14.167c-3.498-1.201-6.057-3.639-7.04-6.735-2.731-7.296 4.832-14.371 4.832-14.371zm-2.653 32.736c-.152.182-.371.413-.683.192-.527-.373-.484-1.088.071-1.461.213.266.432.482.575.74.082.146.122.428.037.529zm-1.099 22.168l-.202-.049-.016-.784a.019.019 0 0 0-.007-.002l.007-.007v.009l.506.161-.288.672zm5.419 4.722c-.055.008-.115-.031-.213-.063.065-.078.101-.152.129-.149.057.006.109.054.163.085-.027.044-.048.122-.079.127zm2.258-3.753l-.006-.152.433-.02.003.172h-.43zm11.871-2.645c-.176-.067-.254-.39-.417-.675l.681-.4.382.849c-.212.082-.481.289-.646.226zm.071-5.805H73.934c-.842 0-1.531-.646-1.531-1.436 0-.79.689-1.436 1.531-1.436h19.075c.842 0 1.531.646 1.531 1.436-.001.79-.689 1.436-1.531 1.436zm2.171-47.061c-.013.008-.085-.04-.087-.067-.005-.044.025-.091.056-.186.068.074.13.111.127.145-.003.039-.055.084-.096.108zm1.639 60.486c-.217-.058-.421-.169-.629-.263l.029-.186.675-.074.123.127c-.067.139-.169.404-.198.396zm.286-18.167c.272-.233.422-.578.862-.303-.254.207-.38.579-.862.303zm.871 13.004c.327-.319.454-.326.762 0h-.762zm13.606-28.151c-.609.075-1.165.007-1.522-.575-.044-.072-.06-.16-.088-.241h-.007l.005-.005.002.005 1.389-.005c.075 0 .174-.023.221.015.193.157.493.313.525.506.057.346-.3.272-.525.3zm5.461 11.894c-.273-.131-.645-.01-.58-.378.035-.201.298-.415.51-.516.19-.091.605.335.518.534-.068.155-.293.242-.448.36z" fill="#F6B33B" data-color="2"></path>
        <path d="M105.354 123.323c-.342 0-.681.02-1.02.062v2.109a5.99 5.99 0 0 1 1.003-.084c1.269 0 2.538.4 3.357 1.197 1.224 1.199 3.035 1.802 4.847 1.802 1.416 0 2.829-.366 3.965-1.095a25.83 25.83 0 0 0-.701-2.117c-.82.738-2.04 1.106-3.261 1.106-1.275 0-2.546-.4-3.363-1.199-1.218-1.198-3.021-1.781-4.827-1.781" opacity=".4"></path>
        <path d="M105.608 142.36c-.427 0-.853.034-1.275.099v2.154a6.062 6.062 0 0 1 1.3-.141c1.263 0 2.521.389 3.332 1.185 1.224 1.199 3.035 1.799 4.849 1.799.223 0 .444-.008.667-.028.497-.794.955-1.608 1.365-2.444a5.64 5.64 0 0 1-2.035.366c-1.275 0-2.546-.4-3.36-1.199-1.226-1.197-3.034-1.791-4.843-1.791" opacity=".4"></path>
        <path d="M118.438 133.56a5.876 5.876 0 0 0-1.588 1.092c-.817.8-2.091 1.199-3.363 1.199-1.274 0-2.546-.4-3.363-1.199-1.218-1.194-3.015-1.774-4.818-1.774-.325 0-.65.02-.972.056v2.097c.311-.051.627-.073.944-.073 1.272 0 2.546.4 3.363 1.199 1.224 1.199 3.035 1.799 4.849 1.799 1.811 0 3.623-.6 4.844-1.799a.02.02 0 0 0 .011-.011c.065-.718.096-1.447.096-2.179 0-.134 0-.272-.003-.407zm-1.395 3.353c-.273-.131-.645-.01-.58-.378.035-.201.298-.415.51-.516.19-.091.605.335.518.534-.068.155-.293.242-.448.36z" opacity=".4"></path>
    </g>
</svg>