<svg preserveAspectRatio="xMidYMid meet" id="comp-k90fpt28svgcontent" data-bbox="11.062 12.528 177.956 174.945" viewBox="11.062 12.528 177.956 174.945" height="200" width="200" xmlns="http://www.w3.org/2000/svg" data-type="color" role="img">
    <g>
        <path d="M189 109.3c-.2 2.1-2.1 3.6-4.1 3.3-1.9-.2-3.3-1.8-3.3-3.6l-76.8-8.1 51.9 16.9c.8-1.7 2.7-2.5 4.5-2 2 .6 3.1 2.8 2.4 4.7-.6 2-2.8 3.1-4.7 2.4-1.8-.6-2.9-2.4-2.5-4.2l-51.9-16.9 47.3 27.3c1.1-1.5 3.2-1.9 4.8-1 1.8 1 2.4 3.3 1.4 5.1s-3.3 2.4-5.1 1.4c-1.6-1-2.3-3-1.6-4.7L104 102.6l57.4 51.6c1.4-1.2 3.5-1.2 4.9.1 1.5 1.4 1.7 3.8.3 5.3s-3.8 1.7-5.3.3c-1.4-1.3-1.6-3.4-.6-4.9l-57.4-51.6 32.1 44.1c1.6-.9 3.7-.5 4.8 1.1 1.2 1.7.8 4-.8 5.2-1.7 1.2-4 .8-5.2-.8-1.1-1.5-.9-3.6.5-4.9L102.6 104l22.2 49.8c1.8-.5 3.7.3 4.5 2.1.8 1.9 0 4.1-1.9 5-1.9.8-4.1 0-5-1.9-.8-1.7-.1-3.7 1.5-4.7l-22.2-49.8 16.1 75.5c1.8-.1 3.6 1.1 4 2.9.4 2-.9 4-2.9 4.5-2 .4-4-.9-4.5-2.9-.4-1.9.7-3.7 2.4-4.3l-16.1-75.5v54.6c1.8.2 3.3 1.8 3.3 3.7 0 2.1-1.7 3.8-3.8 3.8s-3.8-1.7-3.8-3.8c0-1.9 1.4-3.5 3.3-3.7v-54.6l-11.4 53.4c1.7.6 2.8 2.4 2.4 4.3-.4 2-2.4 3.3-4.5 2.9-2-.4-3.3-2.4-2.9-4.5.4-1.9 2.1-3.1 4-2.9l11.4-53.4L67.1 175c1.6 1 2.2 3 1.5 4.7-.8 1.9-3.1 2.7-5 1.9s-2.7-3.1-1.9-5c.8-1.7 2.7-2.6 4.5-2.1L97.6 104l-32.1 44.1c1.3 1.3 1.6 3.4.5 4.9-1.2 1.7-3.6 2-5.2.8-1.7-1.2-2.1-3.6-.8-5.2 1.1-1.5 3.2-2 4.8-1.1l32.1-44.1-40.6 36.5c1 1.5.8 3.6-.6 4.9-1.5 1.4-3.9 1.3-5.3-.3-1.4-1.5-1.3-3.9.3-5.3 1.4-1.3 3.5-1.3 4.9-.1l40.6-36.5-66.9 38.6c.7 1.7.1 3.7-1.6 4.7-1.8 1-4.1.4-5.1-1.4-1-1.8-.4-4.1 1.4-5.1 1.6-1 3.7-.5 4.8 1l66.9-38.6-51.9 16.9c.3 1.8-.7 3.7-2.5 4.2-2 .6-4.1-.4-4.7-2.4-.6-2 .4-4.1 2.4-4.7 1.8-.6 3.7.3 4.5 2L95.3 101 41 106.7c-.1 1.9-1.5 3.4-3.3 3.6-2.1.2-3.9-1.3-4.1-3.3-.2-2.1 1.3-3.9 3.3-4.1 1.9-.2 3.6 1.1 4 2.9l54.3-5.7L18.4 92c-.4 1.8-2.1 3-4 2.9-2.1-.2-3.6-2.1-3.3-4.1.2-2.1 2.1-3.6 4.1-3.3 1.9.2 3.3 1.8 3.3 3.6L95.3 99 43.4 82.1c-.8 1.7-2.7 2.5-4.5 2-2-.6-3.1-2.8-2.4-4.7.6-2 2.8-3.1 4.7-2.4 1.8.6 2.9 2.4 2.5 4.2l51.9 16.9-47.3-27.3c-1.1 1.5-3.2 1.9-4.8 1-1.8-1-2.4-3.3-1.4-5.1 1-1.8 3.3-2.4 5.1-1.4 1.6 1 2.3 3 1.6 4.7l47.3 27.3-57.4-51.7c-1.4 1.2-3.5 1.2-4.9-.1-1.5-1.4-1.7-3.8-.3-5.3s3.8-1.7 5.3-.3c1.4 1.3 1.6 3.4.6 4.9l57.4 51.6-32.1-44.1c-1.6.9-3.7.5-4.8-1.1-1.2-1.7-.8-4 .8-5.2 1.7-1.2 4-.8 5.2.8 1.1 1.5.9 3.6-.5 4.9l32.1 44.1L75.4 46c-1.8.5-3.7-.3-4.5-2.1-.8-1.9 0-4.1 1.9-5 1.9-.8 4.1 0 5 1.9.8 1.7.1 3.7-1.5 4.7l22.2 49.8-16-75.3c-1.8.1-3.6-1.1-4-2.9-.4-2 .9-4 2.9-4.5 2-.4 4 .9 4.5 2.9.4 1.9-.7 3.7-2.4 4.3l16.1 75.5V40.7c-1.8-.2-3.3-1.8-3.3-3.7 0-2.1 1.7-3.8 3.8-3.8s3.8 1.7 3.8 3.8c0 1.9-1.4 3.5-3.3 3.7v54.6L112 41.9c-1.7-.6-2.8-2.4-2.4-4.3.4-2 2.4-3.3 4.5-2.9 2 .4 3.3 2.4 2.9 4.5-.4 1.9-2.1 3.1-4 2.9l-11.4 53.4L132.9 25c-1.6-1-2.2-3-1.5-4.7.8-1.9 3.1-2.7 5-1.9 1.9.8 2.7 3.1 1.9 5-.8 1.7-2.7 2.6-4.5 2.1L102.4 96l32.1-44.1c-1.3-1.3-1.6-3.4-.5-4.9 1.2-1.7 3.6-2 5.2-.8 1.7 1.2 2.1 3.6.8 5.2-1.1 1.5-3.2 2-4.8 1.1l-32.1 44.1 40.6-36.5c-1-1.5-.8-3.6.6-4.9 1.5-1.4 3.9-1.3 5.3.3 1.4 1.5 1.3 3.9-.3 5.3-1.4 1.3-3.5 1.3-4.9.1l-40.6 36.5 66.9-38.6c-.7-1.7-.1-3.7 1.6-4.7 1.8-1 4.1-.4 5.1 1.4 1 1.8.4 4.1-1.4 5.1-1.6 1-3.7.5-4.8-1l-66.9 38.6 51.9-16.9c-.3-1.8.7-3.7 2.5-4.2 2-.6 4.1.4 4.7 2.4.6 2-.4 4.1-2.4 4.7-1.8.6-3.7-.3-4.5-2L104.7 99l54.3-5.7c.1-1.9 1.5-3.4 3.3-3.6 2.1-.2 3.9 1.3 4.1 3.3.2 2.1-1.3 3.9-3.3 4.1-1.9.2-3.6-1.1-4-2.9l-54.3 5.7 76.8 8.1c.4-1.8 2.1-3 4-2.9 2.1.3 3.6 2.2 3.4 4.2z" fill="#215779" data-color="1"></path>
    </g>
</svg>